<svg width="196" height="63" viewBox="0 0 196 63" fill="none" xmlns="http://www.w3.org/2000/svg">
    <g clip-path="url(#clip0)">
        <path d="M48.2548 62.6249C50.7239 62.6249 52.7255 60.6233 52.7255 58.1543C52.7255 55.6852 50.7239 53.6836 48.2548 53.6836C45.7858 53.6836 43.7842 55.6852 43.7842 58.1543C43.7842 60.6233 45.7858 62.6249 48.2548 62.6249Z" fill="url(#paint0_radial)"/>
        <path d="M45.9487 56.7703C46.1616 56.7703 46.4099 56.6993 46.5873 56.5219C46.9422 56.1671 46.9422 55.5994 46.5873 55.2801L38.4621 47.1548C38.1073 46.8 37.5395 46.8 37.2202 47.1548C36.8654 47.5096 36.8654 48.0773 37.2202 48.3966L45.3455 56.5219C45.4874 56.6638 45.7003 56.7703 45.9487 56.7703Z" fill="url(#paint1_linear)"/>
        <path d="M26.2564 17.1729C25.7597 17.1729 25.3694 16.7826 25.3694 16.2859V4.57698C25.3694 4.08024 25.7597 3.68994 26.2564 3.68994C26.7532 3.68994 27.1435 4.08024 27.1435 4.57698V16.2859C27.1435 16.7471 26.7532 17.1729 26.2564 17.1729Z" fill="url(#paint2_linear)"/>
        <path d="M78.9465 34.8427V36.3329C78.9465 36.5813 78.7336 36.7942 78.4852 36.7942H73.5533C73.3049 36.7942 73.092 37.0071 73.092 37.2554V44.8485C73.092 45.0969 73.3049 45.3098 73.5533 45.3098H79.8335C80.0819 45.3098 80.2948 45.5226 80.2948 45.771V47.2967C80.2948 47.5451 80.0819 47.758 79.8335 47.758H70.8922C70.6438 47.758 70.4309 47.5451 70.4309 47.2967V24.2337C70.4309 23.9854 70.6438 23.7725 70.8922 23.7725H79.8335C80.0819 23.7725 80.2948 23.9854 80.2948 24.2337V25.7594C80.2948 26.0078 80.0819 26.2207 79.8335 26.2207H73.5533C73.3049 26.2207 73.092 26.4336 73.092 26.6819V33.9557C73.092 34.204 73.3049 34.4169 73.5533 34.4169H78.4852C78.7691 34.3814 78.9465 34.5943 78.9465 34.8427Z" fill="#0E314F"/>
        <path d="M87.8523 47.2967V24.2337C87.8523 23.9854 88.0652 23.7725 88.3136 23.7725H90.0521C90.3005 23.7725 90.5134 23.9854 90.5134 24.2337V44.8485C90.5134 45.0969 90.7263 45.3098 90.9747 45.3098H96.9001C97.1485 45.3098 97.3613 45.5226 97.3613 45.771V47.2967C97.3613 47.5451 97.1485 47.758 96.9001 47.758H88.3136C88.0652 47.7225 87.8523 47.5451 87.8523 47.2967Z" fill="#0E314F"/>
        <path d="M107.154 24.2337V47.2967C107.154 47.5451 106.941 47.758 106.693 47.758H104.954C104.706 47.758 104.493 47.5451 104.493 47.2967V24.2337C104.493 23.9854 104.706 23.7725 104.954 23.7725H106.693C106.941 23.7725 107.154 23.9854 107.154 24.2337Z" fill="#0E314F"/>
        <path d="M123.157 35.4111V36.9368C123.157 37.1851 122.944 37.398 122.695 37.398H118.083C117.834 37.398 117.622 37.6109 117.622 37.8593V47.3328C117.622 47.5812 117.409 47.7941 117.16 47.7941H115.422C115.173 47.7941 114.96 47.5812 114.96 47.3328V24.2699C114.96 24.0215 115.173 23.8086 115.422 23.8086H124.008C124.257 23.8086 124.469 24.0215 124.469 24.2699V25.7956C124.469 26.0439 124.257 26.2568 124.008 26.2568H118.083C117.834 26.2568 117.622 26.4697 117.622 26.7181V34.524C117.622 34.7724 117.834 34.9853 118.083 34.9853H122.695C122.979 34.9498 123.157 35.1272 123.157 35.4111Z" fill="#0E314F"/>
        <path d="M135.22 47.2967V26.6819C135.22 26.4336 135.007 26.2207 134.759 26.2207H131.246C130.998 26.2207 130.785 26.0078 130.785 25.7594V24.2337C130.785 23.9854 130.998 23.7725 131.246 23.7725H141.82C142.068 23.7725 142.281 23.9854 142.281 24.2337V25.7594C142.281 26.0078 142.068 26.2207 141.82 26.2207H138.307C138.059 26.2207 137.846 26.4336 137.846 26.6819V47.2967C137.846 47.5451 137.633 47.758 137.385 47.758H135.611C135.433 47.7225 135.22 47.5451 135.22 47.2967Z" fill="#0E314F"/>
        <path d="M157.787 34.8427V36.3329C157.787 36.5813 157.574 36.7942 157.325 36.7942H152.393C152.145 36.7942 151.932 37.0071 151.932 37.2554V44.8485C151.932 45.0969 152.145 45.3098 152.393 45.3098H158.674C158.922 45.3098 159.135 45.5226 159.135 45.771V47.2967C159.135 47.5451 158.922 47.758 158.674 47.758H149.732C149.484 47.758 149.271 47.5451 149.271 47.2967V24.2337C149.271 23.9854 149.484 23.7725 149.732 23.7725H158.674C158.922 23.7725 159.135 23.9854 159.135 24.2337V25.7594C159.135 26.0078 158.922 26.2207 158.674 26.2207H152.393C152.145 26.2207 151.932 26.4336 151.932 26.6819V33.9557C151.932 34.204 152.145 34.4169 152.393 34.4169H157.325C157.574 34.3814 157.787 34.5943 157.787 34.8427Z" fill="#0E314F"/>
        <path d="M177.23 29.5563V31.2594C177.23 31.5078 177.018 31.7206 176.769 31.7206H175.137C174.889 31.7206 174.676 31.5078 174.676 31.2594V29.4143C174.676 27.25 173.824 25.9726 171.873 25.9726C169.957 25.9726 169.07 27.2855 169.07 29.4143V42.0813C169.07 44.2456 169.957 45.523 171.873 45.523C173.824 45.523 174.676 44.2101 174.676 42.0813V39.4201C174.676 39.1718 174.889 38.9589 175.137 38.9589H176.769C177.018 38.9589 177.23 39.1718 177.23 39.4201V41.9393C177.23 45.5584 175.527 47.9712 171.837 47.9712C168.183 47.9712 166.479 45.5584 166.479 41.9393V29.5563C166.479 25.9372 168.183 23.5244 171.837 23.5244C175.527 23.5244 177.23 25.9372 177.23 29.5563Z" fill="#0E314F"/>
        <path d="M187.449 37.3977V47.2616C187.449 47.5099 187.236 47.7228 186.988 47.7228H185.214C184.965 47.7228 184.752 47.5099 184.752 47.2616V24.1986C184.752 23.9502 184.965 23.7373 185.214 23.7373H186.952C187.201 23.7373 187.414 23.9502 187.414 24.1986V34.0624C187.414 34.3108 187.626 34.5237 187.875 34.5237H192.842C193.091 34.5237 193.303 34.3108 193.303 34.0624V24.234C193.303 23.9857 193.516 23.7728 193.765 23.7728H195.539C195.787 23.7728 196 23.9857 196 24.234V47.297C196 47.5454 195.787 47.7583 195.539 47.7583H193.765C193.516 47.7583 193.303 47.5454 193.303 47.297V37.4332C193.303 37.1848 193.091 36.9719 192.842 36.9719H187.875C187.662 36.9719 187.449 37.1493 187.449 37.3977Z" fill="#0E314F"/>
        <path d="M26.2565 16.2861C15.5056 16.2861 6.7771 25.0146 6.7771 35.7655C6.7771 46.5164 15.5056 55.2449 26.2565 55.2449C37.0074 55.2449 45.7358 46.5164 45.7358 35.7655C45.7358 25.0146 37.0074 16.2861 26.2565 16.2861ZM32.6431 47.5099C26.0791 47.5099 20.7923 42.1876 20.7923 35.659C20.7923 29.1304 26.1145 23.7727 32.6431 23.7727C39.1717 23.7727 44.494 29.095 44.494 35.6236C44.494 42.1522 39.2072 47.5099 32.6431 47.5099Z" fill="url(#paint3_radial)"/>
        <path d="M32.7141 23.7725C29.024 23.7725 25.7242 25.4046 23.5598 28.0302C24.6243 27.5335 25.7952 27.2851 27.037 27.2851C31.6496 27.3206 35.3752 31.0462 35.3752 35.6588C35.3397 40.3069 31.5786 44.0324 26.966 43.9969C25.7597 43.9969 24.5888 43.7131 23.5598 43.2518C25.7242 45.842 28.9885 47.5096 32.6076 47.5096C39.1717 47.5451 44.4939 42.2583 44.5294 35.6943C44.5649 29.1302 39.2781 23.8079 32.7141 23.7725Z" fill="#0E314F"/>
        <path d="M6.38671 57.1251C6.17382 57.1251 5.92545 57.0541 5.74805 56.8767C5.39323 56.5219 5.39323 55.9542 5.74805 55.6349L14.2281 47.1548C14.5829 46.8 15.1507 46.8 15.47 47.1548C15.8248 47.5096 15.8248 48.0773 15.47 48.3966L6.9899 56.8767C6.84797 57.0187 6.63508 57.1251 6.38671 57.1251Z" fill="url(#paint4_linear)"/>
        <path d="M4.47067 62.6249C6.93976 62.6249 8.94135 60.6233 8.94135 58.1543C8.94135 55.6852 6.93976 53.6836 4.47067 53.6836C2.00159 53.6836 0 55.6852 0 58.1543C0 60.6233 2.00159 62.6249 4.47067 62.6249Z" fill="url(#paint5_radial)"/>
        <path d="M26.2563 8.94135C28.7254 8.94135 30.727 6.93976 30.727 4.47067C30.727 2.00159 28.7254 0 26.2563 0C23.7872 0 21.7856 2.00159 21.7856 4.47067C21.7856 6.93976 23.7872 8.94135 26.2563 8.94135Z" fill="url(#paint6_radial)"/>
    </g>
    <defs>
        <radialGradient id="paint0_radial" cx="0" cy="0" r="1" gradientUnits="userSpaceOnUse" gradientTransform="translate(49.4031 56.7323) scale(5.26354)">
            <stop offset="0.00245307" stop-color="#11A5E1"/>
            <stop offset="0.213" stop-color="#11A0DE"/>
            <stop offset="0.4532" stop-color="#1392D3"/>
            <stop offset="0.7081" stop-color="#157CC2"/>
            <stop offset="0.9716" stop-color="#195CAB"/>
            <stop offset="1" stop-color="#1958A8"/>
        </radialGradient>
        <linearGradient id="paint1_linear" x1="42.5608" y1="51.1994" x2="41.2968" y2="52.4634" gradientUnits="userSpaceOnUse">
            <stop offset="0.000930643" stop-color="#11A5E1"/>
            <stop offset="0.5033" stop-color="#1580C6"/>
            <stop offset="1" stop-color="#1958A8"/>
        </linearGradient>
        <linearGradient id="paint2_linear" x1="25.3703" y1="10.4244" x2="27.1432" y2="10.4244" gradientUnits="userSpaceOnUse">
            <stop offset="1.22453e-05" stop-color="#1958A8"/>
            <stop offset="0.4967" stop-color="#1580C6"/>
            <stop offset="0.9991" stop-color="#11A5E1"/>
        </linearGradient>
        <radialGradient id="paint3_radial" cx="0" cy="0" r="1" gradientUnits="userSpaceOnUse" gradientTransform="translate(29.716 33.1562) scale(22.1996)">
            <stop offset="0.00245307" stop-color="#11A5E1"/>
            <stop offset="0.2465" stop-color="#11A1DE"/>
            <stop offset="0.4669" stop-color="#1396D6"/>
            <stop offset="0.6783" stop-color="#1484C9"/>
            <stop offset="0.8827" stop-color="#176AB6"/>
            <stop offset="1" stop-color="#1958A8"/>
        </radialGradient>
        <linearGradient id="paint4_linear" x1="9.9764" y1="51.3787" x2="11.23" y2="52.6323" gradientUnits="userSpaceOnUse">
            <stop offset="1.22453e-05" stop-color="#1958A8"/>
            <stop offset="0.4967" stop-color="#1580C6"/>
            <stop offset="0.9991" stop-color="#11A5E1"/>
        </linearGradient>
        <radialGradient id="paint5_radial" cx="0" cy="0" r="1" gradientUnits="userSpaceOnUse" gradientTransform="translate(5.60807 57.0871) scale(5.14904)">
            <stop offset="0.00245307" stop-color="#11A5E1"/>
            <stop offset="0.2465" stop-color="#11A1DE"/>
            <stop offset="0.4669" stop-color="#1396D6"/>
            <stop offset="0.6783" stop-color="#1484C9"/>
            <stop offset="0.8827" stop-color="#176AB6"/>
            <stop offset="1" stop-color="#1958A8"/>
        </radialGradient>
        <radialGradient id="paint6_radial" cx="0" cy="0" r="1" gradientUnits="userSpaceOnUse" gradientTransform="translate(27.7939 3.09481) scale(5.34891)">
            <stop offset="0.00245307" stop-color="#11A5E1"/>
            <stop offset="0.2465" stop-color="#11A1DE"/>
            <stop offset="0.4669" stop-color="#1396D6"/>
            <stop offset="0.6783" stop-color="#1484C9"/>
            <stop offset="0.8827" stop-color="#176AB6"/>
            <stop offset="1" stop-color="#1958A8"/>
        </radialGradient>
        <clipPath id="clip0">
            <rect width="196" height="62.5894" fill="white"/>
        </clipPath>
    </defs>
</svg>
